<?xml version="1.0" standalone="no"?>
<!DOCTYPE svg PUBLIC "-//W3C//DTD SVG 20010904//EN"
 "http://www.w3.org/TR/2001/REC-SVG-20010904/DTD/svg10.dtd">
<svg version="1.0" xmlns="http://www.w3.org/2000/svg"
 width="1280.000000pt" height="1280.000000pt" viewBox="0 0 1280.000000 1280.000000"
 preserveAspectRatio="xMidYMid meet">

<g transform="translate(0.000000,1280.000000) scale(0.100000,-0.100000)"
fill="#000000" stroke="none">
<path d="M2375 12793 c-524 -49 -977 -224 -1390 -536 -110 -84 -312 -282 -405
-398 -258 -322 -436 -700 -520 -1104 -65 -319 -61 11 -58 -4380 3 -3676 5
-3988 20 -4082 129 -774 536 -1411 1178 -1842 350 -234 794 -399 1191 -441 60
-6 1491 -10 4011 -10 4266 0 3990 -4 4274 55 121 25 351 98 474 150 242 102
572 307 734 455 5 5 -10 14 -33 20 -22 6 -41 15 -41 20 0 5 19 15 43 21 46 11
81 34 136 90 46 47 61 66 61 79 0 5 4 10 9 10 5 0 14 20 20 45 13 51 28 58 37
18 11 -44 15 -46 41 -21 37 33 140 169 211 275 171 254 325 625 381 914 55
290 52 17 48 4349 l-3 3985 -21 135 c-75 466 -243 862 -522 1224 -262 341
-645 626 -1069 795 -164 65 -297 101 -562 149 l-145 26 -4030 2 c-2216 0
-4048 -1 -4070 -3z m7207 -2145 c339 -93 612 -353 720 -683 52 -160 49 24 52
-3380 2 -1900 0 -3198 -6 -3255 -33 -334 -231 -631 -533 -797 -102 -56 -128
-67 -240 -96 -75 -19 -114 -21 -621 -24 l-540 -4 -70 98 c-38 53 -85 120 -105
148 -173 242 -308 432 -352 494 -29 41 -101 143 -162 227 -110 154 -136 190
-411 579 -81 116 -209 296 -283 400 -74 105 -162 228 -195 275 -33 47 -71 101
-85 121 -14 20 -82 116 -151 213 -69 97 -141 198 -160 225 -19 26 -66 93 -104
147 -38 55 -83 116 -99 137 l-29 37 -439 0 -439 0 -2 -743 -3 -742 -593 -3
c-469 -2 -593 0 -597 10 -2 7 -6 606 -9 1331 -4 1252 -4 1319 13 1335 47 45
163 152 321 297 96 88 211 194 255 235 44 42 107 100 140 130 33 30 132 123
220 206 193 182 229 214 244 214 8 0 11 -172 11 -630 l0 -631 733 3 c667 3
740 5 822 22 174 36 298 101 415 216 201 200 261 519 154 825 -73 208 -244
359 -482 425 -160 45 -139 44 -1520 50 l-1324 5 1 493 c0 272 3 498 6 503 9
13 2648 12 2812 -1 405 -33 736 -133 1022 -311 261 -162 447 -370 580 -650
253 -531 217 -1257 -87 -1734 -189 -297 -444 -503 -819 -661 -62 -26 -113 -50
-113 -54 0 -3 32 -51 70 -106 84 -118 233 -329 275 -387 16 -23 112 -157 212
-297 100 -140 261 -365 358 -500 97 -135 217 -301 266 -370 50 -69 107 -150
128 -180 34 -50 201 -285 399 -563 l77 -108 47 5 c92 10 189 83 238 181 l25
50 0 3165 0 3165 -27 55 c-32 66 -68 107 -126 144 -95 60 101 56 -3079 54
-2759 -3 -2911 -4 -2960 -21 -75 -25 -164 -110 -194 -185 l-24 -57 0 -3150 0
-3150 29 -63 c36 -77 104 -142 184 -174 l57 -22 1949 -1 c1896 0 1949 -1 1960
-19 6 -10 45 -66 87 -125 335 -470 399 -562 399 -571 0 -7 -694 -9 -2267 -7
l-2268 3 -95 26 c-165 46 -368 167 -475 281 -136 145 -227 323 -270 527 -13
63 -15 462 -15 3278 0 3497 -4 3279 56 3450 104 299 327 527 624 639 174 65
-30 61 3295 60 l3020 -2 97 -27z"/>
</g>
</svg>
